# xmcd
#
# Track frame offsets: 
#        150
#        21380
#        47757
#        72652
#        92090
#        112892
#        133555
#        153562
#        170805
#        194022
#
# Disc length: 2861 seconds
#
# Revision: 2
# Processed by: cddbd v1.5.2PL0 Copyright (c) Steve Scherf et al.
# Submitted via: ExactAudioCopy v1.1
#
DISCID=920b2b0a
DTITLE=Kiroro - 長い間 〜キロロの森〜
DYEAR=1998
DGENRE=JPop
TTITLE0=長い間
TTITLE1=すてきだね
TTITLE2=未来へ
TTITLE3=恋に恋して
TTITLE4=逃がさないで
TTITLE5=いつから
TTITLE6=3人の写真
TTITLE7=ラン ラン ラン
TTITLE8=白い靴下
TTITLE9=僕らはヒーロー
EXTD=Contributed by [peasant] YEAR: 1998
EXTT0=
EXTT1=
EXTT2=
EXTT3=
EXTT4=
EXTT5=
EXTT6=
EXTT7=
EXTT8=
EXTT9=
PLAYORDER=
